
        <svg xmlns="http://www.w3.org/2000/svg" xmlns:xlink="http://www.w3.org/1999/xlink" version="1.1" width="3009.049773755656" height="3180.995475113122" viewBox="0 0 3009.049773755656 3180.995475113122">
			
			<g transform="scale(9.049773755656108) translate(10, 10)">
				<defs id="SvgjsDefs5083"/><g id="SvgjsG5084" featureKey="rootContainer" transform="matrix(6.25,0,0,6.25,0.31249597668647766,19)" fill="#000"><path xmlns="http://www.w3.org/2000/svg" d="M24.95 0a25 25 0 1 0 25 25 25 25 0 0 0-25-25zm0 46.91a22 22 0 1 1 22-22 22 22 0 0 1-22 21.99z"/><path xmlns="http://www.w3.org/2000/svg" d="M24.95 3.65a21.3 21.3 0 1 0 21.3 21.3 21.33 21.33 0 0 0-21.3-21.3z"/></g><g id="SvgjsG5085" featureKey="symbolFeature-0" transform="matrix(1.8251463086270165,0,0,1.8251463086270165,95.85837084702698,60.62730988581464)" fill="#ffffff"><g xmlns="http://www.w3.org/2000/svg"><path d="M7.6,36.9c-0.6,0.3,0,1.2,0.5,0.7c0.4-0.4,1-0.2,1.2,0.3c0.3,0.8,1.4,0.6,1.4-0.2c0-1.1,1.6-0.7,2.3-0.9c0-0.1,0-0.2,0-0.3   c-1.2-0.2-1.7,0.1-2.1-0.4c-0.2-0.3,0-0.9-0.6-0.9c-0.5,0-0.3,0.6-1,0.6c-0.3,0-0.5-0.1-0.7-0.3c-0.3-0.4-1,0-0.8,0.4   C8.1,36.3,8,36.7,7.6,36.9z"/><path d="M13.2,38.3l-1,0.1c-0.1,0.3-0.3,0.6-0.5,0.9h1.9C13.4,39,13.2,38.7,13.2,38.3z"/><path d="M15.8,39.2h12.8c2.5-0.5,4.2-1.3,4.8-2c-3.5,0.8-9.4-0.6-12.8-1.7c-2.1,0-3.2,0.2-3.7,0.4c-0.9,0.3-1.4-1.1-0.5-1.4   c0.3-0.1,0.7-0.2,1.1-0.3c-0.1,0-0.6-0.3-0.6-0.3c-1.9,0.4-2.1,1.1-2.2,1.9c0,0,0,0,0,0c0,0.5,0,1.3,0,1.6c0,0,0,0,0,0   C14.6,38,14.6,38.7,15.8,39.2z"/><path d="M9.2,27.7c-0.1,0.4,0.2,0.7,0.6,0.6c0.2-0.1,0.5-0.1,0.7,0c0.6,0.4,0.1,1.1,0.8,1.3c0.4,0.1,0.8-0.1,0.9-0.5   c0.3-1.1,1.6-0.3,2.5-0.2c0-0.1,0.1-0.2,0.1-0.3l-1.4-0.5c-0.4-0.2-0.6-0.6-0.4-1c0.1-0.4-0.4-0.8-0.7-0.5   c-0.4,0.4-1.1,0.2-1.2-0.3c-0.2-0.4-0.7-0.3-0.9,0c-0.1,0.2,0.1,0.4-0.1,0.7C9.7,27.5,9.4,27.2,9.2,27.7z"/><path d="M33.8,35.5c3.5-1.8-10.4-8.2-15.2-8.2c-1.5,0-1.9,0.5-2.1,1.1c-0.2,0.5-0.3,0.8-0.3,1c-0.4,1.4-0.5,2.1,1.2,3.1   C20.3,34.5,30.7,37.2,33.8,35.5z"/><path d="M58,32.5c0.2-1.5-0.2-3.7-1.3-3.8c-0.5,0-1.6,1.1-3.5,0.5v0c-0.2,0-0.3-0.1-0.5-0.2c0.4,1.1,0.6,2.3,0.4,3.4H58z"/><path d="M46.1,23.2C46.1,23.2,46.1,23.2,46.1,23.2c-0.3-0.5-0.6-0.4-0.7-0.5c-0.5,0-1.9,1.3-4.1,0.5c-1.2-0.5-1.6,1.9-1.2,3.4   c0.1,0.4,0.2,0.8,0.4,1.1c0.1-0.9,0.6-2,1.9-2.4c0.9-0.3,1.4,1.1,0.4,1.4c-0.6,0.2-0.8,0.6-0.9,0.9c0.7-0.3,1.7-0.9,3,0.1   c0.5-0.3,1.1-0.3,1.5-0.2C47.3,24.4,46,23.1,46.1,23.2z"/><path d="M51.9,22.7c-0.2,0-0.3,0-0.4,0.1c-1,0.6-3.7,0.3-3.7,0.3c0.3,0.8,0.5,1.8,0.5,2.7c1.8-1.5,2.5,0.6,1.4,0.9   c-0.5,0.1-0.7,0.5-0.8,0.8c0.8-0.4,2-0.5,2.8,0.1c0.4-0.2,0.9-0.2,1.3-0.1c0.6-1.6,0.4-3.5-0.4-4.4C52.2,22.7,52,22.7,51.9,22.7z"/><path d="M3.9,18.7v20.6c0.3-0.1,0.5-0.1,0.8-0.1h2.9C6.1,39,5.3,37.2,6.4,36c-0.2-1.5,1.4-2.7,2.8-2c1-0.8,2.6-0.3,3,0.9l1,0.1   c0.3-1,1-1.7,2.1-2.1c-0.8-0.9-1-1.7-0.9-2.5l-1-0.2c-1,1.4-3.1,1.2-3.8-0.4c-2-0.1-2.6-2.7-0.9-3.7c0.3-1.4,2.1-2.1,3.3-1   c1.2-0.4,2.5,0.5,2.6,1.8l0.9,0.4c0.7-1,1.6-1.4,3.1-1.4c4.6,0,18.5,5.4,17.2,9.7c-0.1,0.4-0.4,0.7-0.7,1c0.2,1.1-0.6,2-1.8,2.7   h5.2c-2.7-2.6-3.4-6.6-1.9-6.7c-0.4-2.1,0.2-4.7,2.2-5c-0.8-2.3-0.5-5.3,1.7-5.9c0.8-0.2,1.2,0.1,1.8,0.2c0.1-2.2,2.4-3.3,2.8-2.1   c0.4,1.1-1.1,0.7-1.3,1.9c0.8-0.4,1.8-1,3,0.1c1-0.3,1.4,0,2,0.1c0.1-0.9,0.5-2.1,1.9-2.6c0.9-0.3,1.4,1.1,0.5,1.4   c-0.5,0.2-0.8,0.6-0.8,1c0.1,0,0.2-0.1,0.3-0.1c1.8-1.2,4.2,0.4,4.2,4.2c1.8-1.3,2.2,0.7,1.3,1c-0.6,0.2-0.8,0.6-0.9,0.9   c0.1,0,0.2-0.1,0.3-0.1c2.1-1.3,4.3,1.1,4,4.5c0,0.2,0,0.3,0,0.5c0.3,0.1,0.6,0.4,0.6,0.7c0,2.4-1,4.5-2.6,6h3.8   c0.3,0,0.6,0,0.8,0.1V18.7c-3.2,0.5-5.2-1.2-6.2-1.6c-1.7-0.8-2.3,2.1-6.1,2.1c-1.6,0-3-0.6-4.2-1.6c-0.7-0.4-2.2-0.4-2.9,0   c-0.1,0-1.7,1.2-4.1,1.2c-3.5,0-3.5-1.5-5.6-1.5c-2.1,0-2.2,1.5-5.6,1.5c-1.5,0-3-0.4-4.1-1.1l-0.1-0.1c-0.7-0.4-2.2-0.4-3,0   c-2.5,1.7-6.2,1.5-8.2,0c-0.2-0.1-0.8-0.3-1.6-0.3C8.1,17.3,7.8,19.3,3.9,18.7z"/><path d="M46.7,29.2C46.7,29.2,46.7,29.2,46.7,29.2C46.7,29.2,46.7,29.2,46.7,29.2c0,0-0.1,0-0.3-0.1c-0.1,0-0.3-0.1-0.5-0.1   c0.4,0.9,0.6,2.2,0.5,3.5h5.3c0.3-1.5,0-3.7-1.5-3.8v0C49.5,28.7,48.6,29.8,46.7,29.2C46.7,29.2,46.7,29.2,46.7,29.2z"/><path d="M38.1,32.5C38.1,32.5,38.1,32.5,38.1,32.5l6.7,0.1c0.3-1.7-0.4-4.5-1.7-3.7c-1.2,0.7-2.6,0.7-3.7,0.2   C38.2,28.6,37.7,30.9,38.1,32.5z"/><path d="M41,39.2h14c1.9-1,3.3-2.9,3.6-5.2c-7.8,0-13.5,0-21.2,0C37.7,36.3,39,38.2,41,39.2z"/><path d="M61.3,40.7H4.7C3.2,40.7,2,42,2,43.4v0.4c0,1.5,1.2,2.7,2.7,2.7h56.6c1.5,0,2.7-1.2,2.7-2.7v-0.4   C64,42,62.8,40.7,61.3,40.7z"/><path d="M30.6,16.4c0.4-0.3,1-0.5,1.6-0.5V1.3h-9.8v14.5c2,0.3,2,1.4,4.9,1.4C29.3,17.3,30.5,16.4,30.6,16.4z"/><path d="M9.7,15.9V1.3H8.8c-2.8,0-5.2,2-5.8,4.8l-1.8,9.5c-0.1,0.3,0.1,0.6,0.3,0.8c1.4,0.9,3.1,0.8,3.3,0.9   C7.9,17.3,7.5,16.1,9.7,15.9z"/><path d="M21,15.9V1.3h-9.8v14.5c2.2,0.3,1.8,1.4,4.9,1.4C18.8,17.3,19.1,16.1,21,15.9z"/><path d="M64.7,15.6l-1.8-9.5c-0.5-2.8-2.9-4.8-5.8-4.8h-0.9v14.3c1.1,0.4,2.9,1.9,5.2,1.7c1.1,0,2.2-0.3,3-0.9   C64.7,16.2,64.8,15.9,64.7,15.6z"/><path d="M53.2,16.3c0.4-0.4,1-0.7,1.5-0.8V1.3H45v14.5c0.6,0.1,1.2,0.2,1.6,0.5C48.4,18.1,51.4,18.2,53.2,16.3z"/><path d="M43.5,15.9V1.3h-9.8v14.5c2.2,0.3,1.9,1.4,4.9,1.4C41.3,17.3,41.6,16.1,43.5,15.9z"/><path d="M4.7,48c-0.3,0-0.6,0-0.8-0.1v16c0,0.4,0.3,0.8,0.8,0.8h56.8c0.4,0,0.8-0.3,0.8-0.8v-16C61.9,48,61.6,48,61.3,48H4.7z    M28.6,59.2L28.6,59.2h-0.4c-0.9,0-0.7-1.1-0.7-1.2c0-5.5,4.4-9.9,9.9-9.9h0.4c0.4,0,0.7,0.3,0.8,0.7l0,0.4   C38.5,54.8,34.1,59.2,28.6,59.2z"/><path d="M29.1,56.6c2.4-2.1,3.2-3.9,4.1-3c0.9,0.9-1,1.7-3,4c3.8-0.7,6.6-4,6.8-7.9C33.1,49.8,29.8,52.7,29.1,56.6z"/></g></g><g id="SvgjsG5086" featureKey="nameFeature-0" transform="matrix(0.7725586998908403,0,0,0.7725586998908403,53.3733003466942,189.97651267597)" fill="#ffffff"><path d="M21.6 12 c0.36 0 0.6 0.24 0.6 0.6 l0 2.82 c0 0.36 -0.24 0.6 -0.6 0.6 l-13.72 0 l0 7.76 l12.8 0 c0.36 0 0.6 0.24 0.6 0.6 l0 2.84 c0 0.36 -0.24 0.6 -0.6 0.6 l-12.8 0 l0 11.58 c0 0.36 -0.24 0.6 -0.6 0.6 l-3.28 0 c-0.36 0 -0.6 -0.24 -0.6 -0.6 l0 -26.8 c0 -0.36 0.24 -0.6 0.6 -0.6 l17.6 0 z M50.980000000000004 39.32 c0.14 0.4 -0.04 0.68 -0.48 0.68 l-3.38 0 c-0.32 0 -0.56 -0.12 -0.68 -0.48 l-1.78 -4.98 l-12.08 0 l-1.78 4.98 c-0.14 0.36 -0.36 0.48 -0.68 0.48 l-3.38 0 c-0.44 0 -0.62 -0.28 -0.48 -0.68 l10.06 -26.84 c0.12 -0.32 0.38 -0.48 0.7 -0.48 l3.14 0 c0.32 0 0.62 0.16 0.74 0.48 z M33.98 30.66 l9.28 0 l-4.64 -12.94 z M71.2 29.4 l5.22 9.9 c0.22 0.42 0.02 0.7 -0.44 0.7 l-3.34 0 c-0.32 0 -0.54 -0.14 -0.7 -0.46 l-4.96 -9.6 l-0.54 0 l-6.02 0 l0 9.46 c0 0.36 -0.24 0.6 -0.6 0.6 l-3.28 0 c-0.36 0 -0.6 -0.24 -0.6 -0.6 l0 -26.8 c0 -0.36 0.24 -0.6 0.6 -0.6 l9.9 0 c7.78 0 10.46 3.14 10.46 8.96 c0 4.44 -1.54 7.32 -5.7 8.44 z M60.42 16.02 l0 9.9 l6.34 0 c3.56 0 5.82 -0.92 5.82 -4.96 c0 -4.02 -2.26 -4.94 -5.82 -4.94 l-6.34 0 z M110.46000000000001 12 c0.36 0 0.6 0.24 0.6 0.6 l0 26.8 c0 0.36 -0.24 0.6 -0.6 0.6 l-3.28 0 c-0.36 0 -0.6 -0.24 -0.6 -0.6 l0 -18.44 l-7.68 18.58 c-0.12 0.32 -0.38 0.46 -0.7 0.46 l-3.08 0 c-0.32 0 -0.58 -0.14 -0.7 -0.46 l-7.64 -18.52 l0 18.38 c0 0.36 -0.24 0.6 -0.6 0.6 l-3.28 0 c-0.36 0 -0.6 -0.24 -0.6 -0.6 l0 -26.8 c0 -0.36 0.24 -0.6 0.6 -0.6 l3.92 0 c0.32 0 0.6 0.12 0.72 0.4 l9.14 22.5 l9.1 -22.5 c0.12 -0.28 0.4 -0.4 0.72 -0.4 l3.96 0 z M135.12 36.24 c0.36 0 0.6 0.24 0.6 0.6 l0 2.56 c0 0.36 -0.24 0.6 -0.6 0.6 l-17.3 0 c-0.36 0 -0.6 -0.24 -0.6 -0.6 l0 -2.42 c0 -12.32 14.38 -10.58 14.38 -17.2 c0 -2.42 -1.52 -4.2 -4.84 -4.2 c-3.34 0 -5.32 1.38 -5.5 4.36 c-0.04 0.4 -0.28 0.6 -0.66 0.56 l-2.86 -0.32 c-0.36 -0.04 -0.58 -0.26 -0.58 -0.64 c0 -5.08 3.72 -7.86 9.38 -7.86 c5.74 0 9.14 2.96 9.14 8.06 c0 9.44 -14.04 7.88 -14.04 16.5 l13.48 0 z M161.56 12 c0.36 0 0.6 0.24 0.6 0.6 l0 2.82 c0 0.36 -0.24 0.6 -0.6 0.6 l-8.06 0 l0 23.38 c0 0.36 -0.24 0.6 -0.6 0.6 l-3.3 0 c-0.36 0 -0.6 -0.24 -0.6 -0.6 l0 -23.38 l-8.06 0 c-0.36 0 -0.6 -0.24 -0.6 -0.6 l0 -2.82 c0 -0.36 0.24 -0.6 0.6 -0.6 l20.62 0 z M190.34 39.32 c0.14 0.4 -0.04 0.68 -0.48 0.68 l-3.38 0 c-0.32 0 -0.56 -0.12 -0.68 -0.48 l-1.78 -4.98 l-12.08 0 l-1.78 4.98 c-0.14 0.36 -0.36 0.48 -0.68 0.48 l-3.38 0 c-0.44 0 -0.62 -0.28 -0.48 -0.68 l10.06 -26.84 c0.12 -0.32 0.38 -0.48 0.7 -0.48 l3.14 0 c0.32 0 0.62 0.16 0.74 0.48 z M173.34 30.66 l9.28 0 l-4.64 -12.94 z M209.16 24.92 c3.84 0.86 5.68 3.58 5.68 7.02 c0 5.52 -3.04 8.06 -10.04 8.06 l-9.4 0 c-0.36 0 -0.6 -0.24 -0.6 -0.6 l0 -26.8 c0 -0.36 0.24 -0.6 0.6 -0.6 l9.74 0 c6.14 0 8.28 3.36 8.28 6.92 c0 2.88 -1.36 5.14 -4.26 6 z M209.16 19.38 c0 -2.38 -1.4 -3.36 -4.44 -3.36 l-5.44 0 l0 7.28 l5.54 0 c2.96 0 4.34 -1.38 4.34 -3.92 z M204.84 35.980000000000004 c3.68 0 5.48 -1.18 5.48 -4.38 c0 -2.78 -1.6 -4.52 -5.38 -4.52 l-5.66 0 l0 8.9 l5.56 0 z M237.86 35.980000000000004 c0.36 0 0.6 0.24 0.6 0.6 l0 2.82 c0 0.36 -0.24 0.6 -0.6 0.6 l-17.02 0 c-0.36 0 -0.6 -0.24 -0.6 -0.6 l0 -26.8 c0 -0.36 0.24 -0.6 0.6 -0.6 l3.28 0 c0.36 0 0.6 0.24 0.6 0.6 l0 23.38 l13.14 0 z M261.68 35.980000000000004 c0.36 0 0.6 0.24 0.6 0.6 l0 2.82 c0 0.36 -0.24 0.6 -0.6 0.6 l-17.22 0 c-0.36 0 -0.6 -0.24 -0.6 -0.6 l0 -26.8 c0 -0.36 0.24 -0.6 0.6 -0.6 l17.18 0 c0.36 0 0.6 0.24 0.6 0.6 l0 2.82 c0 0.36 -0.24 0.6 -0.6 0.6 l-13.3 0 l0 7.5 l12.26 0 c0.36 0 0.6 0.24 0.6 0.6 l0 2.82 c0 0.36 -0.24 0.6 -0.6 0.6 l-12.26 0 l0 8.44 l13.34 0 z"/></g><g id="SvgjsG5087" featureKey="sloganFeature-0" transform="matrix(0.5373971139298696,0,0,0.5373971139298696,78.35512382203544,236.16254363820173)" fill="#ffffff"><path d="M11.11 18.21 c0.25 0.06 0.36 0.14 0.36 0.35 l0 1.19 c0 0.23 -0.22 0.32 -0.57 0.33 c-1.45 0.03 -2.13 -0.5 -2.13 -1.64 l-0.09 0 c-1.02 1.16 -2.74 1.8 -4.15 1.8 c-2.19 0 -3.33 -1.09 -3.33 -2.79 c0 -1.77 1.13 -2.67 3.36 -3 l2.33 -0.36 c0.83 -0.13 1.27 -0.24 1.39 -0.47 c-0.05 -1.36 -0.83 -1.8 -2.12 -1.8 c-1.27 0 -2.19 0.34 -2.34 1.35 c-0.02 0.14 -0.11 0.22 -0.29 0.22 l-1.49 0 c-0.18 0 -0.31 -0.1 -0.29 -0.3 c0.24 -2.33 1.98 -3.11 4.43 -3.11 c2.84 0 4.2 1.33 4.2 3.74 l0 3.67 c0 0.44 0.23 0.72 0.73 0.82 z M4.94 18.39 c1.11 0 2.28 -0.25 3.34 -1.31 l0 -2.01 c-0.11 0.23 -0.5 0.34 -1.25 0.46 l-2.1 0.33 c-1.18 0.19 -1.57 0.66 -1.57 1.32 c0 0.73 0.48 1.21 1.58 1.21 z M23.3575 9.98 c2.09 0 3.54 1.42 3.54 4.04 l0 5.68 c0 0.18 -0.12 0.3 -0.3 0.3 l-1.56 0 c-0.18 0 -0.3 -0.12 -0.3 -0.3 l0 -5.36 c0 -1.67 -0.86 -2.37 -2.17 -2.37 c-1.9 0 -2.72 1.64 -2.72 2.08 l0 5.65 c0 0.18 -0.12 0.3 -0.3 0.3 l-1.56 0 c-0.18 0 -0.3 -0.12 -0.3 -0.3 l0 -9.2 c0 -0.18 0.12 -0.3 0.3 -0.3 l1.48 0 c0.18 0 0.28 0.12 0.3 0.3 l0.08 1.32 l0.21 0 c0.58 -0.94 1.65 -1.84 3.3 -1.84 z M49.9325 20.26 c-2.85 0 -5.15 -2.26 -5.15 -5.14 c0 -2.87 2.3 -5.14 5.15 -5.14 c2.84 0 5.14 2.27 5.14 5.14 c0 2.88 -2.3 5.14 -5.14 5.14 z M49.9325 18.25 c1.72 0 3.05 -1.4 3.05 -3.13 c0 -1.72 -1.33 -3.14 -3.05 -3.14 c-1.73 0 -3.06 1.42 -3.06 3.14 c0 1.73 1.33 3.13 3.06 3.13 z M67.21 9.98 c2.09 0 3.54 1.42 3.54 4.04 l0 5.68 c0 0.18 -0.12 0.3 -0.3 0.3 l-1.56 0 c-0.18 0 -0.3 -0.12 -0.3 -0.3 l0 -5.36 c0 -1.67 -0.86 -2.37 -2.17 -2.37 c-1.9 0 -2.72 1.64 -2.72 2.08 l0 5.65 c0 0.18 -0.12 0.3 -0.3 0.3 l-1.56 0 c-0.18 0 -0.3 -0.12 -0.3 -0.3 l0 -9.2 c0 -0.18 0.12 -0.3 0.3 -0.3 l1.48 0 c0.18 0 0.28 0.12 0.3 0.3 l0.08 1.32 l0.21 0 c0.58 -0.94 1.65 -1.84 3.3 -1.84 z M86.2275 18.19 c0.18 0 0.3 0.12 0.3 0.3 l0 1.21 c0 0.18 -0.12 0.3 -0.3 0.3 l-8.71 0 c-0.18 0 -0.3 -0.12 -0.3 -0.3 l0 -1.21 c0 -0.18 0.12 -0.3 0.3 -0.3 l3.49 0 l0 -10.38 l-3.26 0 c-0.18 0 -0.3 -0.12 -0.3 -0.3 l0 -1.21 c0 -0.18 0.12 -0.3 0.3 -0.3 l5.12 0 c0.18 0 0.3 0.12 0.3 0.3 l0 11.89 l3.06 0 z M97.345 8.13 c-0.7 0 -1.25 -0.55 -1.25 -1.24 c0 -0.7 0.55 -1.25 1.25 -1.25 c0.69 0 1.24 0.55 1.24 1.25 c0 0.69 -0.55 1.24 -1.24 1.24 z M101.405 18.19 c0.18 0 0.3 0.12 0.3 0.3 l0 1.21 c0 0.18 -0.12 0.3 -0.3 0.3 l-8.61 0 c-0.18 0 -0.3 -0.12 -0.3 -0.3 l0 -1.21 c0 -0.18 0.12 -0.3 0.3 -0.3 l3.49 0 l0 -6.18 l-2.99 0 c-0.18 0 -0.3 -0.12 -0.3 -0.3 l0 -1.21 c0 -0.18 0.12 -0.3 0.3 -0.3 l4.85 0 c0.18 0 0.3 0.12 0.3 0.3 l0 7.69 l2.96 0 z M113.74249999999999 9.98 c2.09 0 3.54 1.42 3.54 4.04 l0 5.68 c0 0.18 -0.12 0.3 -0.3 0.3 l-1.56 0 c-0.18 0 -0.3 -0.12 -0.3 -0.3 l0 -5.36 c0 -1.67 -0.86 -2.37 -2.17 -2.37 c-1.9 0 -2.72 1.64 -2.72 2.08 l0 5.65 c0 0.18 -0.12 0.3 -0.3 0.3 l-1.56 0 c-0.18 0 -0.3 -0.12 -0.3 -0.3 l0 -9.2 c0 -0.18 0.12 -0.3 0.3 -0.3 l1.48 0 c0.18 0 0.28 0.12 0.3 0.3 l0.08 1.32 l0.21 0 c0.58 -0.94 1.65 -1.84 3.3 -1.84 z M128.75 9.98 c2.96 0 4.74 2.27 4.74 4.89 c0 0.74 -0.09 1.11 -0.65 1.11 l-6.99 0 c0.23 1.52 1.5 2.5 3.31 2.5 c1.05 0 1.78 -0.32 2.45 -0.83 c0.16 -0.12 0.28 -0.15 0.43 0 l0.66 0.66 c0.15 0.15 0.16 0.29 0 0.45 c-0.95 0.95 -2.19 1.5 -3.76 1.5 c-3.12 0 -5.19 -2.26 -5.19 -5.14 s2.07 -5.14 5 -5.14 z M128.76 11.83 c-1.53 0 -2.67 1 -2.89 2.59 l5.72 0 c-0.16 -1.57 -1.27 -2.59 -2.83 -2.59 z M160.62499999999997 10.2 c0.18 0 0.3 0.12 0.3 0.3 l0 1.19 c0 0.18 -0.12 0.3 -0.3 0.3 l-4.79 0 l0 7.71 c0 0.18 -0.12 0.3 -0.3 0.3 l-1.56 0 c-0.18 0 -0.3 -0.12 -0.3 -0.3 l0 -7.71 l-2.55 0 c-0.18 0 -0.3 -0.12 -0.3 -0.3 l0 -1.19 c0 -0.18 0.12 -0.3 0.3 -0.3 l2.55 0 l0 -0.98 c0 -3.12 2.08 -3.94 4.39 -3.94 c1.17 0 2.76 0.22 2.76 0.65 l0 1.13 c0 0.2 -0.14 0.32 -0.36 0.28 c-0.24 -0.04 -0.78 -0.23 -1.91 -0.23 c-1.46 0 -2.72 0.43 -2.72 2.31 l0 0.78 l4.79 0 z M176.7025 18.21 c0.25 0.06 0.36 0.14 0.36 0.35 l0 1.19 c0 0.23 -0.22 0.32 -0.57 0.33 c-1.45 0.03 -2.13 -0.5 -2.13 -1.64 l-0.09 0 c-1.02 1.16 -2.74 1.8 -4.15 1.8 c-2.19 0 -3.33 -1.09 -3.33 -2.79 c0 -1.77 1.13 -2.67 3.36 -3 l2.33 -0.36 c0.83 -0.13 1.27 -0.24 1.39 -0.47 c-0.05 -1.36 -0.83 -1.8 -2.12 -1.8 c-1.27 0 -2.19 0.34 -2.34 1.35 c-0.02 0.14 -0.11 0.22 -0.29 0.22 l-1.49 0 c-0.18 0 -0.31 -0.1 -0.29 -0.3 c0.24 -2.33 1.98 -3.11 4.43 -3.11 c2.84 0 4.2 1.33 4.2 3.74 l0 3.67 c0 0.44 0.23 0.72 0.73 0.82 z M170.53249999999997 18.39 c1.11 0 2.28 -0.25 3.34 -1.31 l0 -2.01 c-0.11 0.23 -0.5 0.34 -1.25 0.46 l-2.1 0.33 c-1.18 0.19 -1.57 0.66 -1.57 1.32 c0 0.73 0.48 1.21 1.58 1.21 z M189.08999999999997 9.98 c2.16 0 3.75 1.32 3.75 3.81 c0 0.19 -0.1 0.3 -0.29 0.32 l-1.56 0.22 c-0.19 0.03 -0.3 -0.08 -0.32 -0.27 c-0.09 -1.46 -0.99 -2.07 -2.27 -2.07 c-2.02 0 -2.96 1.69 -2.96 2.29 l0 5.42 c0 0.18 -0.12 0.3 -0.3 0.3 l-1.56 0 c-0.18 0 -0.3 -0.12 -0.3 -0.3 l0 -9.2 c0 -0.18 0.12 -0.3 0.3 -0.3 l1.48 0 c0.18 0 0.28 0.12 0.3 0.3 l0.08 1.32 l0.22 0 c0.64 -0.94 1.83 -1.84 3.43 -1.84 z M199.5075 20 c-0.18 0 -0.3 -0.12 -0.3 -0.3 l0 -9.2 c0 -0.18 0.12 -0.3 0.3 -0.3 l1.33 0 c0.18 0 0.29 0.12 0.3 0.3 l0.05 0.8 l0.15 0 c0.38 -0.87 1.17 -1.32 2.18 -1.32 c0.96 0 1.68 0.41 2.06 1.32 l0.12 0 c0.43 -0.88 1.24 -1.32 2.23 -1.32 c1.59 0 2.55 0.91 2.55 3.48 l0 6.24 c0 0.18 -0.12 0.3 -0.3 0.3 l-1.41 0 c-0.18 0 -0.3 -0.12 -0.3 -0.3 l0 -6.24 c0 -1.22 -0.41 -1.62 -1.18 -1.62 c-0.96 0 -1.37 0.72 -1.46 1.32 l0 6.54 c0 0.18 -0.12 0.3 -0.3 0.3 l-1.37 0 c-0.18 0 -0.3 -0.12 -0.3 -0.3 l0 -6.24 c0 -1.22 -0.41 -1.62 -1.2 -1.62 c-0.93 0 -1.35 0.72 -1.44 1.32 l0 6.54 c0 0.18 -0.12 0.3 -0.3 0.3 l-1.41 0 z M229.0125 20 c-0.18 0 -0.3 -0.12 -0.3 -0.3 l0 -9.2 c0 -0.18 0.12 -0.3 0.3 -0.3 l1.33 0 c0.18 0 0.29 0.12 0.3 0.3 l0.05 0.8 l0.15 0 c0.38 -0.87 1.17 -1.32 2.18 -1.32 c0.96 0 1.68 0.41 2.06 1.32 l0.12 0 c0.43 -0.88 1.24 -1.32 2.23 -1.32 c1.59 0 2.55 0.91 2.55 3.48 l0 6.24 c0 0.18 -0.12 0.3 -0.3 0.3 l-1.41 0 c-0.18 0 -0.3 -0.12 -0.3 -0.3 l0 -6.24 c0 -1.22 -0.41 -1.62 -1.18 -1.62 c-0.96 0 -1.37 0.72 -1.46 1.32 l0 6.54 c0 0.18 -0.12 0.3 -0.3 0.3 l-1.37 0 c-0.18 0 -0.3 -0.12 -0.3 -0.3 l0 -6.24 c0 -1.22 -0.41 -1.62 -1.2 -1.62 c-0.93 0 -1.35 0.72 -1.44 1.32 l0 6.54 c0 0.18 -0.12 0.3 -0.3 0.3 l-1.41 0 z M256.31 18.21 c0.25 0.06 0.36 0.14 0.36 0.35 l0 1.19 c0 0.23 -0.22 0.32 -0.57 0.33 c-1.45 0.03 -2.13 -0.5 -2.13 -1.64 l-0.09 0 c-1.02 1.16 -2.74 1.8 -4.15 1.8 c-2.19 0 -3.33 -1.09 -3.33 -2.79 c0 -1.77 1.13 -2.67 3.36 -3 l2.33 -0.36 c0.83 -0.13 1.27 -0.24 1.39 -0.47 c-0.05 -1.36 -0.83 -1.8 -2.12 -1.8 c-1.27 0 -2.19 0.34 -2.34 1.35 c-0.02 0.14 -0.11 0.22 -0.29 0.22 l-1.49 0 c-0.18 0 -0.31 -0.1 -0.29 -0.3 c0.24 -2.33 1.98 -3.11 4.43 -3.11 c2.84 0 4.2 1.33 4.2 3.74 l0 3.67 c0 0.44 0.23 0.72 0.73 0.82 z M250.14 18.39 c1.11 0 2.28 -0.25 3.34 -1.31 l0 -2.01 c-0.11 0.23 -0.5 0.34 -1.25 0.46 l-2.1 0.33 c-1.18 0.19 -1.57 0.66 -1.57 1.32 c0 0.73 0.48 1.21 1.58 1.21 z M268.6975 9.98 c2.16 0 3.75 1.32 3.75 3.81 c0 0.19 -0.1 0.3 -0.29 0.32 l-1.56 0.22 c-0.19 0.03 -0.3 -0.08 -0.32 -0.27 c-0.09 -1.46 -0.99 -2.07 -2.27 -2.07 c-2.02 0 -2.96 1.69 -2.96 2.29 l0 5.42 c0 0.18 -0.12 0.3 -0.3 0.3 l-1.56 0 c-0.18 0 -0.3 -0.12 -0.3 -0.3 l0 -9.2 c0 -0.18 0.12 -0.3 0.3 -0.3 l1.48 0 c0.18 0 0.28 0.12 0.3 0.3 l0.08 1.32 l0.22 0 c0.64 -0.94 1.83 -1.84 3.43 -1.84 z M288.205 18.35 c0.11 0.13 0.13 0.28 0.02 0.41 c-0.42 0.52 -1.51 1.4 -3.3 1.4 c-2.05 0 -3.98 -0.76 -3.98 -3.97 l0 -4.18 l-2.48 0 c-0.18 0 -0.3 -0.12 -0.3 -0.3 l0 -1.21 c0 -0.18 0.12 -0.3 0.3 -0.3 l2.48 0 l0 -2.6 c0 -0.18 0.12 -0.3 0.3 -0.3 l1.56 0 c0.18 0 0.3 0.12 0.3 0.3 l0 2.6 l3.95 0 c0.18 0 0.3 0.12 0.3 0.3 l0 1.21 c0 0.18 -0.12 0.3 -0.3 0.3 l-3.95 0 l0 3.95 c0 1.87 1.08 2.26 2.19 2.26 c0.83 0 1.43 -0.36 1.82 -0.67 c0.14 -0.13 0.3 -0.12 0.42 0.02 z"/></g>
			</g>
		</svg>
	